<?xml version="1.0" standalone="no"?>
<!DOCTYPE svg PUBLIC "-//W3C//DTD SVG 20010904//EN"
 "http://www.w3.org/TR/2001/REC-SVG-20010904/DTD/svg10.dtd">
<svg version="1.0" xmlns="http://www.w3.org/2000/svg"
 width="1080.000000pt" height="1080.000000pt" viewBox="0 0 1080.000000 1080.000000"
 preserveAspectRatio="xMidYMid meet">

<g transform="translate(0.000000,1080.000000) scale(0.100000,-0.100000)"
fill="#23823E" stroke="none">
<path d="M4555 8535 c-692 -62 -1283 -290 -1810 -696 -127 -98 -302 -263 -414
-393 -422 -488 -661 -1048 -732 -1716 -16 -147 -16 -540 0 -690 32 -308 97
-583 201 -845 306 -773 907 -1379 1695 -1708 342 -143 691 -224 1104 -258 161
-13 588 -7 736 11 715 85 1325 301 1808 639 74 51 95 61 168 76 347 69 670
212 939 413 78 58 313 281 308 292 -2 3 -124 122 -272 263 l-269 257 -86 -83
c-152 -146 -310 -253 -484 -326 -51 -22 -102 -42 -114 -46 l-23 -6 0 525 0
526 655 0 655 0 0 630 0 630 -1640 0 c-902 0 -1640 2 -1640 5 0 3 24 45 54 93
233 374 611 625 1066 707 145 26 448 32 586 11 340 -53 631 -195 884 -433 l90
-85 177 168 c98 92 220 208 271 257 l94 90 -79 79 c-276 281 -618 481 -1003
585 -66 18 -100 32 -100 42 0 19 -227 242 -330 325 -259 207 -632 403 -965
507 -210 65 -448 116 -685 145 -177 21 -654 27 -845 9z m721 -1000 c146 -20
328 -58 418 -88 l69 -23 -144 -70 c-374 -183 -635 -395 -870 -709 -111 -148
-235 -374 -295 -537 l-29 -78 -802 0 c-696 0 -803 2 -803 15 0 31 83 246 138
355 201 404 517 717 927 915 261 127 512 196 805 224 151 15 460 12 586 -4z
m-911 -2847 c46 -218 165 -505 291 -703 165 -260 402 -502 661 -675 51 -34 78
-57 70 -61 -23 -13 -274 -30 -437 -30 -239 0 -434 25 -647 81 -605 161 -1102
571 -1367 1130 -43 92 -126 312 -126 335 0 3 346 5 769 5 l768 0 18 -82z
m1865 -442 l0 -524 -77 30 c-352 135 -633 380 -807 702 -43 80 -108 235 -120
289 l-6 27 505 0 505 0 0 -524z"/>
</g>
</svg>
